<svg xmlns="http://www.w3.org/2000/svg" width="38.018" height="50.387" viewBox="0 0 38.018 50.387"><g transform="translate(-1263.5 15250.499)"><path d="M37.017,49.387H0V44.954a4.773,4.773,0,0,1,1.958-3.389,20.243,20.243,0,0,1,4.308-2.756,46.747,46.747,0,0,1,6.266-2.531V32.615A7.786,7.786,0,0,0,10.8,28.179a17.136,17.136,0,0,0-4.051-3.853A5.28,5.28,0,0,1,4.2,20.52a2.368,2.368,0,0,1,.426-1.788c.763-.77,1.542-2.128,1.542-6.361A17.5,17.5,0,0,1,7.839,5.184C8.809,3.192,10.63.714,13.792.223A16.775,16.775,0,0,1,16.315,0,4.639,4.639,0,0,1,20.27,1.593a4.3,4.3,0,0,0,3.059,1.529c4.989.459,7.519,3.051,7.519,7.7,0,4.13.577,7.086,1.542,7.906a2.063,2.063,0,0,1,.47,1.6,5.291,5.291,0,0,1-2.589,3.989,17.125,17.125,0,0,0-4.051,3.853,7.787,7.787,0,0,0-1.735,4.436v3.662l.012,0a46.711,46.711,0,0,1,6.254,2.528,20.241,20.241,0,0,1,4.308,2.756,4.773,4.773,0,0,1,1.958,3.389v4.432ZM19.878,12.328h0a6.231,6.231,0,0,1,4.826,2.2,4.851,4.851,0,0,1,1.045,2.54A7.49,7.49,0,0,1,22.575,23.6a12.5,12.5,0,0,1-1.656,1.109,7.74,7.74,0,0,1-.732.37c2.106-.391,4.931-1.411,6.427-4.069a7.72,7.72,0,0,0-.169-7.581,7.613,7.613,0,0,0-2.359-2.477A8.139,8.139,0,0,0,19.712,9.7a7.064,7.064,0,0,0-3.225.733,5.185,5.185,0,0,0-2.9,4.708,4.88,4.88,0,0,0,1.692,3.486,5.785,5.785,0,0,0,3.844,1.423c.085,0,.172,0,.257-.005a1.287,1.287,0,0,0,1.21-1.348,1.271,1.271,0,0,0-1.257-1.244h-.05q-.077,0-.154,0a2.8,2.8,0,0,1-3.021-2.419,2.614,2.614,0,0,1,2.068-2.48A6.479,6.479,0,0,1,19.878,12.328Zm-1.9-3.833c-2.108.392-4.933,1.416-6.425,4.07a7.7,7.7,0,0,0,2.527,10.058,8.15,8.15,0,0,0,4.372,1.252,7.047,7.047,0,0,0,3.227-.734,5.177,5.177,0,0,0,2.9-4.707,4.874,4.874,0,0,0-1.692-3.487,5.794,5.794,0,0,0-3.847-1.422c-.084,0-.169,0-.253.005a1.287,1.287,0,0,0-1.21,1.348,1.274,1.274,0,0,0,1.26,1.247h.048c.053,0,.106,0,.159,0a2.8,2.8,0,0,1,3.017,2.417A2.617,2.617,0,0,1,20,21.018a6.5,6.5,0,0,1-1.706.226,6.23,6.23,0,0,1-4.828-2.2A4.878,4.878,0,0,1,12.417,16.5a7.49,7.49,0,0,1,3.177-6.526A12.348,12.348,0,0,1,17.25,8.864C17.478,8.738,17.723,8.607,17.98,8.495Z" transform="translate(1264 -15250)" fill="#f78f1f" stroke="rgba(0,0,0,0)" stroke-miterlimit="10" stroke-width="1"></path></g></svg>